<?xml version="1.0" standalone="no"?>
<!DOCTYPE svg PUBLIC "-//W3C//DTD SVG 20010904//EN"
 "http://www.w3.org/TR/2001/REC-SVG-20010904/DTD/svg10.dtd">
<svg version="1.0" xmlns="http://www.w3.org/2000/svg"
 width="100.000000pt" height="100.000000pt" viewBox="0 0 100.000000 100.000000"
 preserveAspectRatio="xMidYMid meet">

<g transform="translate(0.000000,100.000000) scale(0.100000,-0.100000)"
fill="#000000" stroke="none">
<path d="M480 950 l0 -49 -77 -3 -78 -3 -3 -57 -3 -57 -57 -3 -57 -3 -3 -86
-3 -87 -59 -21 c-94 -34 -100 -62 -40 -181 38 -75 40 -84 40 -170 0 -88 -1
-91 -26 -100 -14 -6 -43 -10 -65 -10 -33 0 -40 -3 -37 -17 4 -24 47 -28 111
-9 46 13 57 13 92 1 52 -18 83 -18 135 0 38 13 47 13 87 0 55 -19 80 -19 133
0 38 13 47 13 93 -2 47 -15 56 -15 112 0 54 14 67 14 101 2 50 -18 85 -18 109
-2 25 19 11 38 -24 31 -16 -4 -45 -1 -65 6 l-36 12 0 87 c0 82 3 94 40 174 22
47 40 92 40 100 0 28 -41 66 -90 82 l-49 16 -3 87 -3 87 -57 3 -57 3 -3 57 -3
57 -77 3 -78 3 0 49 c0 43 -3 50 -20 50 -17 0 -20 -7 -20 -50z m162 -147 l3
-58 58 -3 57 -3 0 -59 c0 -33 -3 -60 -7 -60 -5 0 -63 18 -130 41 l-123 41
-123 -41 c-67 -23 -125 -41 -130 -41 -4 0 -7 27 -7 60 l0 59 58 3 57 3 3 58 3
57 139 0 139 0 3 -57z m61 -213 c104 -34 191 -68 194 -75 2 -8 -14 -53 -36
-101 -38 -81 -41 -93 -41 -175 0 -99 -3 -103 -77 -115 -29 -4 -53 -1 -85 14
-39 17 -48 18 -69 6 -46 -25 -103 -27 -151 -6 -39 17 -48 18 -69 6 -43 -23
-101 -27 -147 -9 l-42 17 0 89 c0 84 -2 93 -42 173 -22 46 -39 90 -35 99 5 15
381 148 402 143 6 -2 95 -31 198 -66z"/>
<path d="M312 488 c-31 -31 0 -105 33 -78 25 21 14 90 -15 90 -3 0 -11 -5 -18
-12z"/>
<path d="M652 488 c-31 -31 0 -105 33 -78 25 21 14 90 -15 90 -3 0 -11 -5 -18
-12z"/>
<path d="M146 63 c-15 -8 -52 -17 -82 -20 -43 -5 -54 -9 -52 -22 4 -22 59 -26
116 -7 41 14 52 14 87 1 52 -18 83 -18 135 0 38 13 47 13 87 0 55 -19 80 -19
133 0 38 13 47 13 87 0 55 -19 80 -19 133 0 38 13 47 13 87 0 54 -19 84 -19
108 -2 26 20 10 37 -29 30 -22 -3 -49 2 -78 15 -39 17 -48 18 -69 6 -46 -25
-103 -27 -151 -6 -39 17 -48 18 -69 6 -46 -25 -103 -27 -151 -6 -39 17 -48 18
-69 6 -46 -25 -103 -27 -151 -6 -40 17 -47 18 -72 5z"/>
</g>
</svg>
